<svg version="1" xmlns="http://www.w3.org/2000/svg" width="341.333" height="341.333" viewBox="0 0 256.000000 256.000000"><path d="M109 50.6c-31.4 4.6-50.7 20.3-57.6 46.6-2.1 8.3-3 31.1-1.2 32.5 3.3 2.5 33.7 11.7 48.8 14.7 14.2 2.8 30 3.7 43 2.3 6.2-.7 8.4-1 14-2.2 1.4-.3 3.6-.7 4.9-1 10.1-1.9 31.6-8.5 41.5-12.8l4.9-2.1-.6-13c-.6-12.6-2.9-23.9-6-29.8-10.8-20.1-27.8-31.2-54.2-35.4-7.4-1.1-28.9-1-37.5.2z"/><path d="M24.5 139.8c-9.8 1.8-19.5 12-22.1 22.9-4 17 8 32.2 31.4 40.2 7.9 2.7 10.2 2.7 10.2.1 0-3.4 3.7-9.5 7.4-12.4 6.7-5.1 18.3-9.2 31.1-11.1 2.2-.4 5.1-.8 6.5-1.1 10.4-1.7 48.1-2.4 64.5-1.1 34.1 2.8 53 10.7 56.5 23.8 1 3.6 1.3 3.9 3.8 3.3 9.1-2.2 23.4-8.6 26.9-12 .7-.7 2.3-2.1 3.5-3.1 9.3-7.5 12.6-21.2 7.8-31.9-3-6.6-11.4-14.7-17.2-16.7-7.6-2.5-14.5-1.5-34.4 5.2-16.1 5.5-29.6 9.2-37.9 10.5-14.1 2.2-18.5 2.5-36 2.5-17.5-.1-23.7-.3-28.7-1.3-1.8-.3-5.3-.8-7.8-1.1-5.4-.7-23.7-5-29.5-7-2.2-.7-9.1-3.2-15.4-5.4-11-4-16.5-5.1-20.6-4.3z"/></svg>