<?xml version="1.0" standalone="no"?>
<!DOCTYPE svg PUBLIC "-//W3C//DTD SVG 20010904//EN"
 "http://www.w3.org/TR/2001/REC-SVG-20010904/DTD/svg10.dtd">
<svg version="1.0" xmlns="http://www.w3.org/2000/svg"
 width="512.000000pt" height="512.000000pt" viewBox="0 0 512.000000 512.000000"
 preserveAspectRatio="xMidYMid meet">
<metadata>
Created by potrace 1.11, written by Peter Selinger 2001-2013
</metadata>
<g transform="translate(0.000000,512.000000) scale(0.100000,-0.100000)"
fill="#000000" stroke="none">
<path d="M2498 4135 c-2 -1 -57 -5 -123 -8 -66 -4 -129 -8 -140 -10 -27 -6
-129 -18 -135 -17 -3 1 -17 -3 -31 -8 -14 -6 -42 -13 -62 -16 -19 -3 -73 -17
-119 -30 -505 -148 -820 -509 -888 -1016 -12 -87 -20 -484 -10 -499 8 -13 222
-90 456 -165 170 -54 527 -137 694 -162 171 -25 226 -29 420 -29 229 0 343 11
595 59 250 48 751 202 923 284 l57 27 -1 185 c0 205 -7 291 -29 395 -84 394
-343 703 -720 862 -135 56 -352 113 -485 127 -142 15 -394 28 -402 21z"/>
<path d="M4420 2324 c-88 -15 -154 -35 -470 -143 -463 -158 -727 -213 -1159
-239 -179 -11 -560 -4 -716 13 -16 2 -57 6 -90 10 -33 3 -87 10 -120 15 -33 5
-78 12 -100 15 -172 26 -428 90 -585 146 -47 17 -89 32 -95 33 -5 2 -17 6 -25
9 -17 7 -114 41 -262 93 -255 88 -381 68 -562 -87 -40 -34 -118 -142 -146
-200 -98 -207 -71 -422 75 -607 74 -96 170 -170 310 -239 78 -39 234 -97 289
-107 15 -3 43 -10 62 -16 20 -7 37 -10 38 -8 2 1 10 34 19 72 30 122 108 213
247 289 102 56 291 120 415 140 17 3 57 10 90 16 124 22 141 24 404 47 133 11
212 13 501 14 286 0 343 -2 520 -15 386 -28 679 -94 876 -196 99 -51 117 -64
177 -124 47 -47 97 -147 97 -192 0 -17 4 -34 8 -37 9 -5 132 26 227 58 344
114 582 326 631 561 41 200 -32 395 -204 548 -141 125 -266 162 -452 131z"/>
</g>
</svg>
