<?xml version="1.0" standalone="no"?>
<!DOCTYPE svg PUBLIC "-//W3C//DTD SVG 20010904//EN"
 "http://www.w3.org/TR/2001/REC-SVG-20010904/DTD/svg10.dtd">
<svg version="1.0" xmlns="http://www.w3.org/2000/svg"
 width="256.000000pt" height="256.000000pt" viewBox="0 0 256.000000 256.000000"
 preserveAspectRatio="xMidYMid meet">
<metadata>
Created by potrace 1.11, written by Peter Selinger 2001-2013
</metadata>
<g transform="translate(0.000000,256.000000) scale(0.100000,-0.100000)"
fill="#000000" stroke="none">
<path d="M1090 2054 c-314 -46 -507 -203 -576 -466 -21 -83 -30 -311 -12 -325
33 -25 337 -117 488 -147 142 -28 300 -37 430 -23 62 7 84 10 140 22 14 3 36
7 49 10 101 19 316 85 415 128 l49 21 -6 130 c-6 126 -29 239 -60 298 -108
201 -278 312 -542 354 -74 11 -289 10 -375 -2z"/>
<path d="M245 1162 c-98 -18 -195 -120 -221 -229 -40 -170 80 -322 314 -402
79 -27 102 -27 102 -1 0 34 37 95 74 124 67 51 183 92 311 111 22 4 51 8 65
11 104 17 481 24 645 11 341 -28 530 -107 565 -238 10 -36 13 -39 38 -33 91
22 234 86 269 120 7 7 23 21 35 31 93 75 126 212 78 319 -30 66 -114 147 -172
167 -76 25 -145 15 -344 -52 -161 -55 -296 -92 -379 -105 -141 -22 -185 -25
-360 -25 -175 1 -237 3 -287 13 -18 3 -53 8 -78 11 -54 7 -237 50 -295 70 -22
7 -91 32 -154 54 -110 40 -165 51 -206 43z"/>
</g>
</svg>
