<svg version="1" xmlns="http://www.w3.org/2000/svg" width="682.667" height="682.667" viewBox="0 0 512.000000 512.000000"><path d="M249.8 98.5c-.2.1-5.7.5-12.3.8-6.6.4-12.9.8-14 1-2.7.6-12.9 1.8-13.5 1.7-.3-.1-1.7.3-3.1.8-1.4.6-4.2 1.3-6.2 1.6-1.9.3-7.3 1.7-11.9 3-50.5 14.8-82 50.9-88.8 101.6-1.2 8.7-2 48.4-1 49.9.8 1.3 22.2 9 45.6 16.5 17 5.4 52.7 13.7 69.4 16.2 17.1 2.5 22.6 2.9 42 2.9 22.9 0 34.3-1.1 59.5-5.9 25-4.8 75.1-20.2 92.3-28.4l5.7-2.7-.1-18.5c0-20.5-.7-29.1-2.9-39.5-8.4-39.4-34.3-70.3-72-86.2-13.5-5.6-35.2-11.3-48.5-12.7-14.2-1.5-39.4-2.8-40.2-2.1z"/><path d="M442 279.6c-8.8 1.5-15.4 3.5-47 14.3-46.3 15.8-72.7 21.3-115.9 23.9-17.9 1.1-56 .4-71.6-1.3-1.6-.2-5.7-.6-9-1-3.3-.3-8.7-1-12-1.5-3.3-.5-7.8-1.2-10-1.5-17.2-2.6-42.8-9-58.5-14.6-4.7-1.7-8.9-3.2-9.5-3.3-.5-.2-1.7-.6-2.5-.9-1.7-.7-11.4-4.1-26.2-9.3-25.5-8.8-38.1-6.8-56.2 8.7-4 3.4-11.8 14.2-14.6 20-9.8 20.7-7.1 42.2 7.5 60.7 7.4 9.6 17 17 31 23.9 7.8 3.9 23.4 9.7 28.9 10.7 1.5.3 4.3 1 6.2 1.6 2 .7 3.7 1 3.8.8.2-.1 1-3.4 1.9-7.2 3-12.2 10.8-21.3 24.7-28.9 10.2-5.6 29.1-12 41.5-14 1.7-.3 5.7-1 9-1.6 12.4-2.2 14.1-2.4 40.4-4.7 13.3-1.1 21.2-1.3 50.1-1.4 28.6 0 34.3.2 52 1.5 38.6 2.8 67.9 9.4 87.6 19.6 9.9 5.1 11.7 6.4 17.7 12.4 4.7 4.7 9.7 14.7 9.7 19.2 0 1.7.4 3.4.8 3.7.9.5 13.2-2.6 22.7-5.8 34.4-11.4 58.2-32.6 63.1-56.1 4.1-20-3.2-39.5-20.4-54.8-14.1-12.5-26.6-16.2-45.2-13.1z"/></svg>